<svg width="285" height="498" viewBox="0 0 285 498" fill="none" xmlns="http://www.w3.org/2000/svg">
<g filter="url(#filter0_d_0_2307)">
<path fill-rule="evenodd" clip-rule="evenodd" d="M59.0548 10.9983H225.608C241.582 10.9983 254.531 23.4542 254.531 38.8194V419.681C254.531 435.046 241.582 447.502 225.608 447.502H59.0548C43.0814 447.502 30.1323 435.046 30.1323 419.681V38.8194C30.1323 23.4542 43.0814 10.9983 59.0548 10.9983Z" fill="#000105"/>
</g>
<path opacity="0.595562" fill-rule="evenodd" clip-rule="evenodd" d="M226.252 10.5H58.3116C50.4709 10.9803 43.2397 14.5748 36.6182 21.2835C40.8766 17.5489 48.4719 12.5515 58.5137 12.5515C58.5137 12.5515 219.356 12.5515 226.05 12.5515C236.092 12.5515 243.687 17.5489 247.946 21.2835C241.324 14.5748 234.093 10.9803 226.252 10.5Z" fill="url(#paint0_linear_0_2307)" fill-opacity="0.65"/>
<path opacity="0.695312" fill-rule="evenodd" clip-rule="evenodd" d="M226.252 447.487H58.3115C50.1541 447.15 43.121 444.233 37.6038 438.362C41.8622 441.741 48.4718 445.63 58.5136 445.63C58.5136 445.63 219.356 445.63 226.05 445.63C236.092 445.63 243.3 441.165 247.559 437.786C241.795 444.096 234.604 447.169 226.252 447.487Z" fill="url(#paint1_linear_0_2307)" fill-opacity="0.65"/>
<path opacity="0.602468" fill-rule="evenodd" clip-rule="evenodd" d="M38.804 439.386C43.5471 443.194 49.571 445.472 56.1271 445.472H230.31C236.045 445.472 241.372 443.729 245.791 440.744C240.867 445.245 234.312 447.99 227.116 447.99H58.8654C50.9709 447.99 43.8481 444.686 38.804 439.386Z" fill="url(#paint2_linear_0_2307)"/>
<path opacity="0.75" fill-rule="evenodd" clip-rule="evenodd" d="M249.986 415.337V41.109C249.986 31.0682 246.313 27.3563 244.122 24.9729C241.931 22.5894 241.837 21.3738 244.986 23.1733C248.134 24.9729 254.432 30.2142 254.432 41.109V415.337C254.432 426.232 248.134 431.473 244.986 433.273C241.837 435.072 241.931 433.857 244.122 431.473C246.313 429.09 249.986 425.378 249.986 415.337Z" fill="url(#paint3_linear_0_2307)"/>
<path opacity="0.75" fill-rule="evenodd" clip-rule="evenodd" d="M34.5777 415.337V41.109C34.5777 31.0682 38.2508 27.3563 40.4421 24.9729C42.6333 22.5894 42.7266 21.3738 39.5781 23.1733C36.4297 24.9729 30.1324 30.2142 30.1324 41.109V415.337C30.1324 426.232 36.4297 431.473 39.5781 433.273C42.7266 435.072 42.6333 433.857 40.4421 431.473C38.2508 429.09 34.5777 425.378 34.5777 415.337Z" fill="url(#paint4_linear_0_2307)"/>
<ellipse cx="142.058" cy="26.7931" rx="4.32384" ry="4.08499" fill="#181819"/>
<g opacity="0.496094" filter="url(#filter1_iii_0_2307)">
<ellipse cx="142.058" cy="26.7931" rx="4.32384" ry="4.08499" fill="black"/>
</g>
<g opacity="0.695029">
<ellipse cx="142.058" cy="26.7931" rx="3.24288" ry="3.06374" fill="#1E1939"/>
<ellipse cx="142.058" cy="26.7931" rx="2.06365" ry="1.94965" fill="#342B64"/>
<ellipse cx="142.058" cy="26.7931" rx="0.884422" ry="0.835566" fill="#51439F"/>
<ellipse opacity="0.34" cx="141.174" cy="25.9576" rx="0.589615" ry="0.557044" fill="white"/>
</g>
<path fill-rule="evenodd" clip-rule="evenodd" d="M122.547 21.3889L57.743 21.3889C48.0716 21.3889 41.0247 28.0068 41.0247 36.6502V406.241C41.0247 417.511 51.9134 427.497 64.2259 427.497H220.415C232.275 427.497 243.616 417.434 243.616 406.241V37.6492C243.616 27.2895 235.961 21.4505 226.898 21.3889L161.067 21.3889C160.817 21.43 156.295 23.2979 154.384 28.0068C152.473 32.7156 148.627 36.4694 144.417 36.4694H139.526C137.525 36.4694 132.256 34.5184 129.588 28.0068C126.92 21.4952 122.796 21.43 122.547 21.3889Z" fill="#E3ECF6"/>
<mask id="mask0_0_2307" style="mask-type:alpha" maskUnits="userSpaceOnUse" x="41" y="21" width="203" height="407">
<path fill-rule="evenodd" clip-rule="evenodd" d="M122.547 21.3889L57.743 21.3889C48.0716 21.3889 41.0247 28.0068 41.0247 36.6502V406.241C41.0247 417.511 51.9134 427.497 64.2259 427.497H220.415C232.275 427.497 243.616 417.434 243.616 406.241V37.6492C243.616 27.2895 235.961 21.4505 226.898 21.3889L161.067 21.3889C160.817 21.43 156.295 23.2979 154.384 28.0068C152.473 32.7156 148.627 36.4694 144.417 36.4694H139.526C137.525 36.4694 132.256 34.5184 129.588 28.0068C126.92 21.4952 122.796 21.43 122.547 21.3889Z" fill="white"/>
</mask>
<g mask="url(#mask0_0_2307)">
<rect x="41.0664" y="21.6843" width="202.592" height="405.781" fill="#F7F7F7"/>
<rect x="41.0664" y="21.4624" width="202.592" height="406.25" fill="url(#paint5_linear_0_2307)"/>
<path fill-rule="evenodd" clip-rule="evenodd" d="M131.28 203.754L108.775 244.804H121.246L143.751 203.754H131.28Z" fill="white"/>
<path opacity="0.5" fill-rule="evenodd" clip-rule="evenodd" d="M146.631 203.754L124.125 244.804H136.596L159.102 203.754H146.631Z" fill="white"/>
<path opacity="0.15" fill-rule="evenodd" clip-rule="evenodd" d="M161.981 203.754L139.476 244.804H151.947L174.452 203.754H161.981Z" fill="white"/>
<path fill-rule="evenodd" clip-rule="evenodd" d="M231.668 27.4419H224.213V28.4368H223.716H222.511L223.362 29.2899L223.716 29.6448V29.8434C223.65 29.8825 223.595 29.9162 223.552 29.9432C223.517 29.9651 223.49 29.9827 223.47 29.995L223.448 30.0096L223.442 30.0139L223.44 30.0152L223.439 30.0156L223.439 30.0158C223.439 30.0159 223.438 30.0159 223.716 30.4316L223.438 30.0159L222.068 30.9316H223.716V31.9265H224.213V33.4214H227.483L227.689 33.6281V34.6307L228.189 34.1294L228.689 34.6307V33.6281L228.896 33.4214H231.668V30.9316H232.662H234.31L232.94 30.0159L232.662 30.4316C232.94 30.0159 232.94 30.0159 232.94 30.0158L232.94 30.0156L232.939 30.0152L232.937 30.0139L232.931 30.0096L232.908 29.995C232.889 29.9827 232.862 29.9651 232.827 29.9432C232.758 29.9005 232.66 29.8411 232.537 29.7703L233.016 29.2899L233.867 28.4368H232.662H231.668V27.4419ZM234.153 33.4214H240.118V27.4419L234.153 33.4214Z" fill="white"/>
<path fill-rule="evenodd" clip-rule="evenodd" d="M66.0819 31.9629C65.7804 32.1792 65.4302 32.2873 65.0313 32.2873C64.6323 32.2873 64.2821 32.1792 63.9806 31.9629C63.6791 31.7466 63.446 31.449 63.2813 31.07C63.1166 30.6909 63.0343 30.2642 63.0343 29.7899C63.0343 29.3155 63.1166 28.8888 63.2813 28.5097C63.446 28.1307 63.6791 27.8331 63.9806 27.6168C64.2821 27.4005 64.6323 27.2924 65.0313 27.2924C65.4302 27.2924 65.7804 27.4005 66.0819 27.6168C66.3834 27.8331 66.6165 28.1307 66.7812 28.5097C66.9459 28.8888 67.0282 29.3155 67.0282 29.7899C67.0282 30.2642 66.9459 30.6909 66.7812 31.07C66.6165 31.449 66.3834 31.7466 66.0819 31.9629ZM55.4021 27.404V32.1757H54.4906V28.5969L53.7739 29.1202L53.3147 28.4156L54.7133 27.404H55.4021ZM59.5465 31.2967V32.1757H58.635V31.2967H56.4432V30.5572L58.5585 27.404H59.5465V30.4456H60.138V31.2967H59.5465ZM58.635 30.4456H57.4522L58.5794 28.7644H58.635V30.4456ZM62.0106 29.5631C61.8923 29.6817 61.7496 29.741 61.5827 29.741C61.4157 29.741 61.273 29.6817 61.1547 29.5631C61.0364 29.4445 60.9773 29.3015 60.9773 29.1341C60.9773 28.9667 61.0364 28.8248 61.1547 28.7086C61.273 28.5923 61.4157 28.5342 61.5827 28.5342C61.7496 28.5342 61.8923 28.5923 62.0106 28.7086C62.1289 28.8248 62.188 28.9667 62.188 29.1341C62.188 29.3015 62.1289 29.4445 62.0106 29.5631ZM61.5827 32.2175C61.7496 32.2175 61.8923 32.1582 62.0106 32.0396C62.1289 31.9211 62.188 31.778 62.188 31.6106C62.188 31.4432 62.1289 31.3013 62.0106 31.1851C61.8923 31.0688 61.7496 31.0107 61.5827 31.0107C61.4157 31.0107 61.273 31.0688 61.1547 31.1851C61.0364 31.3013 60.9773 31.4432 60.9773 31.6106C60.9773 31.778 61.0364 31.9211 61.1547 32.0396C61.273 32.1582 61.4157 32.2175 61.5827 32.2175ZM65.0313 31.4292C64.8132 31.4292 64.6219 31.3583 64.4572 31.2165C64.2925 31.0746 64.1673 30.8793 64.0815 30.6305C63.9957 30.3817 63.9528 30.1015 63.9528 29.7899C63.9528 29.3108 64.0502 28.9178 64.245 28.6109C64.4398 28.304 64.7019 28.1505 65.0313 28.1505C65.3652 28.1505 65.6297 28.3028 65.8245 28.6074C66.0193 28.912 66.1167 29.3062 66.1167 29.7899C66.1167 30.1015 66.0738 30.3817 65.988 30.6305C65.9022 30.8793 65.7769 31.0746 65.6123 31.2165C65.4476 31.3583 65.2539 31.4292 65.0313 31.4292ZM70.9778 28.304L68.7373 32.2873L67.9719 31.8618L69.955 28.304L69.9271 28.2621H67.7423V27.404H70.9778V28.304Z" fill="white"/>
</g>
<defs>
<filter id="filter0_d_0_2307" x="0.132324" y="0.998291" width="284.398" height="496.503" filterUnits="userSpaceOnUse" color-interpolation-filters="sRGB">
<feFlood flood-opacity="0" result="BackgroundImageFix"/>
<feColorMatrix in="SourceAlpha" type="matrix" values="0 0 0 0 0 0 0 0 0 0 0 0 0 0 0 0 0 0 127 0" result="hardAlpha"/>
<feOffset dy="20"/>
<feGaussianBlur stdDeviation="15"/>
<feColorMatrix type="matrix" values="0 0 0 0 0 0 0 0 0 0 0 0 0 0 0 0 0 0 0.15 0"/>
<feBlend mode="normal" in2="BackgroundImageFix" result="effect1_dropShadow_0_2307"/>
<feBlend mode="normal" in="SourceGraphic" in2="effect1_dropShadow_0_2307" result="shape"/>
</filter>
<filter id="filter1_iii_0_2307" x="137.734" y="21.7081" width="8.64771" height="10.17" filterUnits="userSpaceOnUse" color-interpolation-filters="sRGB">
<feFlood flood-opacity="0" result="BackgroundImageFix"/>
<feBlend mode="normal" in="SourceGraphic" in2="BackgroundImageFix" result="shape"/>
<feColorMatrix in="SourceAlpha" type="matrix" values="0 0 0 0 0 0 0 0 0 0 0 0 0 0 0 0 0 0 127 0" result="hardAlpha"/>
<feOffset/>
<feGaussianBlur stdDeviation="2.5"/>
<feComposite in2="hardAlpha" operator="arithmetic" k2="-1" k3="1"/>
<feColorMatrix type="matrix" values="0 0 0 0 1 0 0 0 0 1 0 0 0 0 1 0 0 0 0.048998 0"/>
<feBlend mode="normal" in2="shape" result="effect1_innerShadow_0_2307"/>
<feColorMatrix in="SourceAlpha" type="matrix" values="0 0 0 0 0 0 0 0 0 0 0 0 0 0 0 0 0 0 127 0" result="hardAlpha"/>
<feOffset dy="1"/>
<feGaussianBlur stdDeviation="0.5"/>
<feComposite in2="hardAlpha" operator="arithmetic" k2="-1" k3="1"/>
<feColorMatrix type="matrix" values="0 0 0 0 0.992214 0 0 0 0 0.992214 0 0 0 0 0.992214 0 0 0 0.160128 0"/>
<feBlend mode="normal" in2="effect1_innerShadow_0_2307" result="effect2_innerShadow_0_2307"/>
<feColorMatrix in="SourceAlpha" type="matrix" values="0 0 0 0 0 0 0 0 0 0 0 0 0 0 0 0 0 0 127 0" result="hardAlpha"/>
<feOffset dy="-1"/>
<feGaussianBlur stdDeviation="0.5"/>
<feComposite in2="hardAlpha" operator="arithmetic" k2="-1" k3="1"/>
<feColorMatrix type="matrix" values="0 0 0 0 1 0 0 0 0 1 0 0 0 0 1 0 0 0 0.438208 0"/>
<feBlend mode="normal" in2="effect2_innerShadow_0_2307" result="effect3_innerShadow_0_2307"/>
</filter>
<linearGradient id="paint0_linear_0_2307" x1="36.6182" y1="10.5" x2="36.6182" y2="21.2835" gradientUnits="userSpaceOnUse">
<stop stop-color="#454545"/>
<stop offset="0.226279" stop-color="#999999"/>
<stop offset="1" stop-color="white"/>
</linearGradient>
<linearGradient id="paint1_linear_0_2307" x1="37.6038" y1="447.487" x2="37.6038" y2="437.786" gradientUnits="userSpaceOnUse">
<stop stop-color="#454545"/>
<stop offset="0.226279" stop-color="#999999"/>
<stop offset="1" stop-color="white"/>
</linearGradient>
<linearGradient id="paint2_linear_0_2307" x1="215.274" y1="445.674" x2="215.274" y2="451.741" gradientUnits="userSpaceOnUse">
<stop stop-color="white" stop-opacity="0.01"/>
<stop offset="1" stop-color="white" stop-opacity="0.55"/>
</linearGradient>
<linearGradient id="paint3_linear_0_2307" x1="254.432" y1="84.2023" x2="246.115" y2="84.2023" gradientUnits="userSpaceOnUse">
<stop/>
<stop offset="0.222178" stop-color="#BABABA"/>
<stop offset="0.54678" stop-color="#000108"/>
<stop offset="1" stop-color="#060606"/>
</linearGradient>
<linearGradient id="paint4_linear_0_2307" x1="30.1324" y1="84.2023" x2="38.449" y2="84.2023" gradientUnits="userSpaceOnUse">
<stop/>
<stop offset="0.222178" stop-color="#BABABA"/>
<stop offset="0.54678" stop-color="#000108"/>
<stop offset="1" stop-color="#060606"/>
</linearGradient>
<linearGradient id="paint5_linear_0_2307" x1="-59.8043" y1="223.735" x2="263.321" y2="384.873" gradientUnits="userSpaceOnUse">
<stop stop-color="#33D35E"/>
<stop offset="1" stop-color="#2AB6D9"/>
</linearGradient>
</defs>
</svg>
